<svg width="100" height="129" viewBox="0 0 100 129" fill="none" xmlns="http://www.w3.org/2000/svg">
<g clip-path="url(#clip0_14_2)">
<path d="M28.3 15.6134C28.4794 15.4489 28.6073 15.2528 28.6836 15.025C28.8527 14.5189 29.3109 14.0731 29.7218 13.7643C30.1473 13.4427 30.5733 13.1406 31 12.858C31.1273 12.7739 31.2661 12.7282 31.4164 12.7209C31.5036 12.7173 31.5103 12.7386 31.4364 12.7849C31.1648 12.9554 30.9485 13.1789 30.7873 13.4555C30.7376 13.5407 30.76 13.5706 30.8545 13.545C30.9709 13.5121 31.0685 13.4536 31.1473 13.3696C31.6151 12.8616 32.1012 12.4615 32.6055 12.1691C34.4073 11.124 36.1927 10.13 38.1273 9.31139C38.6642 9.0836 39.2115 8.92098 39.7691 8.82353C41.3654 8.54579 42.9873 8.20045 44.6345 7.78751C45.2988 7.62062 46.0182 7.50733 46.7927 7.44765C48.097 7.34776 49.0467 7.30939 49.6418 7.33253C51.1121 7.38857 52.7467 7.53352 54.5454 7.76741C55.3867 7.87582 56.1933 8.05671 56.9654 8.31008C58.6915 8.87408 60.36 9.47644 61.9709 10.1172C62.3297 10.2597 62.6315 10.4296 62.8764 10.627C64.8218 12.1947 66.7758 13.7801 68.7382 15.3832C69.1418 15.7139 69.5291 16.1049 69.8727 16.4977C71.3964 18.2391 72.9964 19.9621 74.3291 21.8167C75.0758 22.8546 75.8109 23.8644 76.5345 24.8462C76.6836 25.0472 76.803 25.2713 76.8927 25.5186C77.3473 26.7782 77.8351 28.1205 78.3564 29.5457C78.6291 30.2925 78.8333 31.0416 78.9691 31.7932C79.2879 33.5717 79.5964 35.2545 79.8945 36.8417C79.977 37.2815 80.003 37.7626 79.9727 38.2852C79.8333 40.6411 79.7 43.1108 79.5727 45.6945C79.5388 46.3974 79.4448 47.0728 79.2909 47.7209C78.9515 49.1449 78.6139 50.536 78.2782 51.8942C78.1 52.619 77.9927 53.3212 77.9564 54.0009C77.8958 55.1277 77.8303 56.2313 77.76 57.3118C77.7443 57.5444 77.6947 57.7735 77.6127 57.9915C76.7982 60.1476 75.9739 62.3293 75.14 64.5365C75.0564 64.757 74.9424 64.9507 74.7982 65.1176C74.2551 65.7401 73.6788 66.3838 73.0691 67.0489C72.5364 67.6282 71.7873 68.0137 71.1164 68.4339C70.897 68.5728 70.7455 68.7561 70.6618 68.9839C70.2982 69.9816 69.9024 70.989 69.4745 72.0061C68.9436 73.2669 68.7091 74.5551 68.4418 75.8907C68.3388 76.4097 68.1757 76.8908 67.9527 77.3342C67.3733 78.4866 66.8267 79.5817 66.3127 80.6195C66.2688 80.7077 66.2517 80.8075 66.2636 80.9064C66.4976 82.7592 66.7351 84.6856 66.9764 86.6858C67.0042 86.9209 67.0854 87.103 67.22 87.2321C67.6939 87.6865 68.1479 88.1652 68.5818 88.6683C70.1673 90.5028 71.8618 92.2606 73.5145 94.0293C73.7036 94.2315 73.9388 94.3941 74.22 94.5172C82.6164 98.1971 91.1261 101.946 99.7491 105.764C99.8533 105.81 99.8885 105.778 99.8545 105.669C99.7764 105.413 99.7855 105.133 99.7855 104.861C99.7733 70.0187 99.7709 35.1869 99.7782 0.365437C99.7782 0.329576 99.764 0.295185 99.7388 0.269827C99.7135 0.24447 99.6793 0.230225 99.6436 0.230225H0.329085C0.302563 0.230225 0.277128 0.240813 0.258374 0.259659C0.239621 0.278506 0.229085 0.304067 0.229085 0.33072C0.230297 35.2034 0.229691 70.0857 0.227267 104.978C0.227267 105.193 0.235752 105.406 0.252721 105.616C0.285449 106 0.242418 106.37 0.12363 106.723C0.0957516 106.808 0.121812 106.83 0.201812 106.789C3.18727 105.234 6.01636 103.66 8.9309 102.126C13.6739 99.6284 18.5424 97.0417 23.5364 94.3655C24.1327 94.0464 24.5927 93.715 24.9164 93.3715C26.1224 92.0888 27.3545 90.7946 28.6127 89.4887C29.1921 88.887 29.6703 88.2974 30.0473 87.72C30.4703 87.0732 30.8988 86.4209 31.3327 85.7631C31.4523 85.5816 31.5288 85.3747 31.5564 85.1583L31.9964 81.6245C32.0082 81.5313 31.9937 81.4369 31.9545 81.3522L29.6873 76.3603C29.5891 76.1459 29.5127 75.9236 29.4582 75.6934C29.0703 74.0599 28.6885 72.4233 28.3127 70.7837C28.2497 70.5121 28.0842 70.3007 27.8164 70.1497C27.0382 69.7112 26.2958 69.2757 25.5891 68.8432C25.3767 68.7135 25.1823 68.5556 25.0109 68.3737C24.2121 67.5283 23.4685 66.7164 22.78 65.938C22.5861 65.7187 22.4327 65.4672 22.32 65.1834C21.8255 63.9336 21.3164 62.6545 20.7927 61.3463C20.5964 60.8566 20.4564 60.323 20.3727 59.7456C20.1085 57.9209 19.8467 56.1406 19.5873 54.4047C19.4127 53.2317 19.6764 52.0166 19.3218 50.8929C18.7764 49.1619 18.2964 47.504 17.8818 45.9192C17.5982 44.8388 17.2558 42.9641 16.8545 40.2951C16.7685 39.7287 16.7576 39.1763 16.8218 38.6379C16.9964 37.1786 17.1836 35.7856 17.3836 34.4591C17.4794 33.8269 17.6551 33.152 17.9109 32.4345C18.7254 30.1451 19.4091 27.7862 20.38 25.6593C20.8818 24.5569 21.4085 23.4082 21.96 22.2132C22.2418 21.6011 22.7618 21.1626 23.2855 20.7533C23.7545 20.3854 24.1976 20.0212 24.6145 19.6606C25.3073 19.0631 26.0909 18.6685 26.8218 18.144C26.9406 18.0588 27.04 17.954 27.12 17.8298L28.1582 16.2291C28.1866 16.184 28.2006 16.1317 28.1982 16.0793C28.1933 15.9526 28.2103 15.8241 28.2491 15.6938C28.2588 15.6633 28.2758 15.6365 28.3 15.6134Z" stroke="#808080" stroke-width="2"/>
<path d="M60.6564 47.8396C60.0891 40.2842 53.6055 36.9532 46.7746 37.4374C42.1255 37.7681 38.1927 40.646 36.7491 45.161C36.1709 46.9723 35.9109 48.7812 35.9691 50.5877C35.9705 50.6284 35.9876 50.667 36.0168 50.6953C36.046 50.7236 36.0849 50.7394 36.1255 50.7394L42.8764 50.7376C42.8986 50.7376 42.9207 50.7331 42.9412 50.7244C42.9618 50.7157 42.9804 50.703 42.996 50.687C43.0115 50.671 43.0238 50.6521 43.032 50.6313C43.0402 50.6104 43.0441 50.5882 43.0436 50.5658C43.0055 48.0297 43.8582 45.3291 46.4018 44.4447C47.7746 43.966 49.6746 44.0135 50.9582 44.79C51.9376 45.3845 52.5836 46.2506 52.8964 47.3883C53.9273 51.1322 52.6091 54.0375 49.6673 56.3343C47.3055 58.1761 45.6182 60.323 45.2546 63.3708C45.0958 64.6925 45.0146 66.0239 45.0109 67.365C45.0109 67.397 45.0236 67.4277 45.0461 67.4503C45.0686 67.4729 45.0991 67.4856 45.1309 67.4856L51.5491 67.4802C51.6279 67.4802 51.6679 67.4406 51.6691 67.3614C51.68 66.6171 51.7382 65.8296 51.8436 64.9988C52.0521 63.3617 52.7939 62.043 54.0691 61.0429C55.1843 60.1683 56.2661 59.1853 57.3146 58.0938C59.52 55.7971 60.6473 53.1823 60.7164 50.1181C60.7333 49.3495 60.7133 48.59 60.6564 47.8396Z" stroke="#808080" stroke-width="2"/>
<path d="M52.1313 71.4077C52.1313 71.3767 52.119 71.347 52.0971 71.3251C52.0753 71.3032 52.0456 71.291 52.0148 71.291L44.9566 71.3034C44.9413 71.3034 44.9262 71.3065 44.9121 71.3124C44.898 71.3183 44.8852 71.3269 44.8744 71.3378C44.8636 71.3487 44.8551 71.3616 44.8492 71.3758C44.8434 71.39 44.8404 71.4052 44.8405 71.4205L44.8541 79.2775C44.8542 79.3085 44.8665 79.3382 44.8883 79.3601C44.9102 79.382 44.9398 79.3942 44.9707 79.3942L52.0288 79.3818C52.0441 79.3818 52.0592 79.3787 52.0734 79.3728C52.0875 79.3669 52.1003 79.3583 52.1111 79.3474C52.1218 79.3365 52.1304 79.3236 52.1362 79.3094C52.142 79.2952 52.145 79.28 52.145 79.2647L52.1313 71.4077Z" stroke="#808080" stroke-width="2"/>
<path d="M0 0H100V129H0V0ZM28.3 15.6134C28.4794 15.4489 28.6073 15.2528 28.6836 15.025C28.8527 14.5189 29.3109 14.0731 29.7218 13.7643C30.1473 13.4427 30.5733 13.1406 31 12.858C31.1273 12.7739 31.2661 12.7282 31.4164 12.7209C31.5036 12.7173 31.5103 12.7386 31.4364 12.7849C31.1648 12.9554 30.9485 13.179 30.7873 13.4555C30.7376 13.5407 30.76 13.5706 30.8545 13.545C30.9709 13.5121 31.0685 13.4536 31.1473 13.3696C31.6152 12.8616 32.1012 12.4615 32.6055 12.1691C34.4073 11.124 36.1927 10.13 38.1273 9.31139C38.6642 9.0836 39.2115 8.92098 39.7691 8.82353C41.3655 8.54579 42.9873 8.20045 44.6345 7.78751C45.2988 7.62062 46.0182 7.50734 46.7927 7.44765C48.097 7.34776 49.0467 7.30939 49.6418 7.33254C51.1121 7.38857 52.7467 7.53353 54.5455 7.76741C55.3867 7.87582 56.1933 8.05671 56.9655 8.31008C58.6915 8.87408 60.36 9.47644 61.9709 10.1172C62.3297 10.2597 62.6315 10.4296 62.8764 10.627C64.8218 12.1947 66.7758 13.7801 68.7382 15.3832C69.1418 15.7139 69.5291 16.1049 69.8727 16.4977C71.3964 18.2391 72.9964 19.9621 74.3291 21.8167C75.0758 22.8546 75.8109 23.8644 76.5345 24.8462C76.6836 25.0472 76.803 25.2713 76.8927 25.5186C77.3473 26.7782 77.8352 28.1205 78.3564 29.5457C78.6291 30.2925 78.8333 31.0416 78.9691 31.7932C79.2879 33.5717 79.5964 35.2545 79.8946 36.8417C79.977 37.2815 80.003 37.7626 79.9727 38.2852C79.8333 40.6411 79.7 43.1108 79.5727 45.6945C79.5388 46.3974 79.4449 47.0728 79.2909 47.7209C78.9515 49.1449 78.6139 50.536 78.2782 51.8942C78.1 52.619 77.9927 53.3212 77.9564 54.0009C77.8958 55.1277 77.8303 56.2313 77.76 57.3118C77.7443 57.5444 77.6947 57.7735 77.6127 57.9915C76.7982 60.1476 75.9739 62.3293 75.14 64.5365C75.0564 64.757 74.9424 64.9507 74.7982 65.1176C74.2552 65.7401 73.6788 66.3838 73.0691 67.0489C72.5364 67.6282 71.7873 68.0137 71.1164 68.434C70.897 68.5728 70.7455 68.7561 70.6618 68.9839C70.2982 69.9816 69.9024 70.989 69.4745 72.0061C68.9436 73.2669 68.7091 74.5551 68.4418 75.8907C68.3388 76.4097 68.1758 76.8908 67.9527 77.3342C67.3733 78.4866 66.8267 79.5817 66.3127 80.6195C66.2688 80.7077 66.2517 80.8075 66.2636 80.9064C66.4976 82.7592 66.7352 84.6856 66.9764 86.6858C67.0042 86.9209 67.0855 87.103 67.22 87.2321C67.6939 87.6865 68.1479 88.1652 68.5818 88.6683C70.1673 90.5028 71.8618 92.2606 73.5145 94.0293C73.7036 94.2315 73.9388 94.3941 74.22 94.5172C82.6164 98.1971 91.1261 101.946 99.7491 105.764C99.8533 105.81 99.8885 105.778 99.8546 105.669C99.7764 105.413 99.7855 105.133 99.7855 104.861C99.7733 70.0187 99.7709 35.1869 99.7782 0.365439C99.7782 0.329579 99.764 0.295187 99.7388 0.269829C99.7135 0.244472 99.6793 0.230227 99.6436 0.230227H0.329091C0.302569 0.230227 0.277134 0.240815 0.25838 0.259661C0.239627 0.278508 0.229091 0.304069 0.229091 0.330722C0.230303 35.2034 0.229697 70.0857 0.227273 104.978C0.227273 105.193 0.235758 105.406 0.252727 105.616C0.285455 106 0.242424 106.37 0.123636 106.723C0.0957576 106.808 0.121818 106.83 0.201818 106.789C3.18727 105.234 6.01636 103.66 8.93091 102.126C13.6739 99.6284 18.5424 97.0417 23.5364 94.3655C24.1327 94.0464 24.5927 93.715 24.9164 93.3715C26.1224 92.0888 27.3545 90.7946 28.6127 89.4887C29.1921 88.887 29.6703 88.2974 30.0473 87.72C30.4703 87.0732 30.8988 86.4209 31.3327 85.7631C31.4523 85.5816 31.5288 85.3747 31.5564 85.1583L31.9964 81.6245C32.0082 81.5313 31.9937 81.4369 31.9545 81.3522L29.6873 76.3603C29.5891 76.1459 29.5127 75.9236 29.4582 75.6934C29.0703 74.0599 28.6885 72.4233 28.3127 70.7837C28.2497 70.5121 28.0842 70.3007 27.8164 70.1497C27.0382 69.7112 26.2958 69.2757 25.5891 68.8432C25.3767 68.7135 25.1823 68.5556 25.0109 68.3737C24.2121 67.5283 23.4685 66.7164 22.78 65.938C22.5861 65.7187 22.4327 65.4672 22.32 65.1834C21.8255 63.9336 21.3164 62.6545 20.7927 61.3463C20.5964 60.8566 20.4564 60.323 20.3727 59.7456C20.1085 57.9209 19.8467 56.1406 19.5873 54.4047C19.4127 53.2317 19.6764 52.0166 19.3218 50.8929C18.7764 49.1619 18.2964 47.504 17.8818 45.9192C17.5982 44.8388 17.2558 42.9641 16.8545 40.2951C16.7685 39.7287 16.7576 39.1763 16.8218 38.6379C16.9964 37.1786 17.1836 35.7856 17.3836 34.4591C17.4794 33.8269 17.6552 33.152 17.9109 32.4345C18.7255 30.1451 19.4091 27.7862 20.38 25.6593C20.8818 24.5569 21.4085 23.4082 21.96 22.2132C22.2418 21.6011 22.7618 21.1626 23.2855 20.7533C23.7545 20.3854 24.1976 20.0212 24.6145 19.6606C25.3073 19.0631 26.0909 18.6685 26.8218 18.1441C26.9406 18.0588 27.04 17.954 27.12 17.8298L28.1582 16.2291C28.1866 16.184 28.2006 16.1317 28.1982 16.0793C28.1933 15.9526 28.2103 15.8241 28.2491 15.6938C28.2588 15.6633 28.2758 15.6365 28.3 15.6134ZM60.6564 47.8396C60.0891 40.2842 53.6055 36.9532 46.7745 37.4374C42.1255 37.7681 38.1927 40.646 36.7491 45.161C36.1709 46.9723 35.9109 48.7812 35.9691 50.5877C35.9705 50.6284 35.9876 50.667 36.0168 50.6953C36.0459 50.7236 36.0849 50.7394 36.1255 50.7394L42.8764 50.7376C42.8986 50.7376 42.9207 50.7331 42.9412 50.7244C42.9618 50.7157 42.9804 50.703 42.9959 50.687C43.0115 50.671 43.0238 50.6521 43.032 50.6313C43.0402 50.6104 43.0441 50.5882 43.0436 50.5658C43.0055 48.0297 43.8582 45.3291 46.4018 44.4447C47.7745 43.966 49.6745 44.0135 50.9582 44.79C51.9376 45.3845 52.5836 46.2506 52.8964 47.3883C53.9273 51.1322 52.6091 54.0375 49.6673 56.3343C47.3055 58.1761 45.6182 60.323 45.2545 63.3708C45.0958 64.6925 45.0145 66.0239 45.0109 67.365C45.0109 67.397 45.0236 67.4277 45.0461 67.4503C45.0686 67.4729 45.0991 67.4856 45.1309 67.4856L51.5491 67.4802C51.6279 67.4802 51.6679 67.4406 51.6691 67.3614C51.68 66.6171 51.7382 65.8296 51.8436 64.9988C52.0521 63.3617 52.7939 62.043 54.0691 61.0429C55.1842 60.1683 56.2661 59.1853 57.3145 58.0939C59.52 55.7971 60.6473 53.1824 60.7164 50.1181C60.7333 49.3495 60.7133 48.59 60.6564 47.8396ZM52.1313 71.4077C52.1313 71.3767 52.119 71.347 52.0971 71.3251C52.0753 71.3032 52.0456 71.2909 52.0148 71.291L44.9566 71.3034C44.9413 71.3034 44.9262 71.3064 44.9121 71.3123C44.898 71.3182 44.8852 71.3269 44.8744 71.3378C44.8636 71.3486 44.8551 71.3615 44.8492 71.3757C44.8434 71.3899 44.8404 71.4051 44.8405 71.4205L44.8541 79.2774C44.8542 79.3085 44.8665 79.3382 44.8883 79.3601C44.9102 79.3819 44.9398 79.3942 44.9707 79.3942L52.0288 79.3818C52.0441 79.3818 52.0592 79.3787 52.0734 79.3728C52.0875 79.3669 52.1003 79.3583 52.1111 79.3474C52.1219 79.3365 52.1304 79.3236 52.1362 79.3094C52.142 79.2952 52.145 79.28 52.145 79.2647L52.1313 71.4077Z" fill="black"/>
<path d="M46.7746 37.4374C53.6055 36.9532 60.0891 40.2842 60.6564 47.8396C60.7133 48.59 60.7333 49.3495 60.7164 50.1181C60.6473 53.1823 59.52 55.7971 57.3146 58.0938C56.2661 59.1853 55.1843 60.1683 54.0691 61.0429C52.7939 62.043 52.0521 63.3617 51.8436 64.9988C51.7382 65.8296 51.68 66.6171 51.6691 67.3614C51.6679 67.4406 51.6279 67.4802 51.5491 67.4802L45.1309 67.4856C45.0991 67.4856 45.0686 67.4729 45.0461 67.4503C45.0236 67.4277 45.0109 67.397 45.0109 67.365C45.0146 66.0239 45.0958 64.6925 45.2546 63.3708C45.6182 60.323 47.3055 58.1761 49.6673 56.3343C52.6091 54.0375 53.9273 51.1322 52.8964 47.3883C52.5836 46.2506 51.9376 45.3845 50.9582 44.79C49.6746 44.0135 47.7746 43.966 46.4018 44.4447C43.8582 45.3291 43.0055 48.0297 43.0436 50.5658C43.0441 50.5882 43.0402 50.6104 43.032 50.6313C43.0238 50.6521 43.0115 50.671 42.996 50.687C42.9804 50.703 42.9618 50.7157 42.9412 50.7244C42.9207 50.7331 42.8986 50.7376 42.8764 50.7376L36.1255 50.7394C36.0849 50.7394 36.046 50.7236 36.0168 50.6953C35.9876 50.667 35.9705 50.6284 35.9691 50.5877C35.9109 48.7812 36.1709 46.9723 36.7491 45.161C38.1927 40.646 42.1255 37.7681 46.7746 37.4374Z" fill="white"/>
<path d="M52.0148 71.291L44.9566 71.3034C44.8923 71.3035 44.8403 71.3559 44.8404 71.4205L44.8541 79.2775C44.8542 79.342 44.9064 79.3943 44.9707 79.3942L52.0288 79.3818C52.0931 79.3817 52.1451 79.3293 52.145 79.2647L52.1313 71.4077C52.1312 71.3432 52.079 71.2909 52.0148 71.291Z" fill="white"/>
</g>
<defs>
<clipPath id="clip0_14_2">
<rect width="100" height="129" fill="white"/>
</clipPath>
</defs>
</svg>
