<svg width="144" height="133" viewBox="0 0 144 133" fill="none" xmlns="http://www.w3.org/2000/svg">
<path d="M104.164 45.7552C104.164 37.2126 100.765 29.02 94.7155 22.9795C88.6658 16.939 80.4606 13.5455 71.905 13.5455C63.3495 13.5455 55.1443 16.939 49.0946 22.9795C43.0449 29.02 39.6462 37.2126 39.6462 45.7552C39.6462 54.2977 43.0449 62.4903 49.0946 68.5308C55.1443 74.5713 63.3495 77.9648 71.905 77.9648C76.1413 77.9648 80.3362 77.1317 84.25 75.513C88.1638 73.8943 91.72 71.5218 94.7155 68.5308C97.711 65.5399 100.087 61.9891 101.708 58.0813C103.33 54.1734 104.164 49.985 104.164 45.7552Z" stroke="#ADADAD" stroke-width="2"/>
<path d="M43.3756 117.489C45.5766 118.334 47.8864 118.868 50.305 119.094C52.1678 119.266 53.9681 119.348 55.706 119.339C58.2079 119.327 61.7661 119.227 66.3805 119.039C69.2735 118.921 71.9488 118.891 74.4065 118.948C78.7629 119.051 83.2989 119.307 87.7086 119.335C92.4566 119.365 97.3828 118.986 101.685 116.953C106.105 114.866 109.474 110.823 111.83 106.649C114.427 102.047 116.141 97.2013 116.972 92.1117C117.376 89.6322 117.488 87.0709 117.08 84.5681C115.478 74.7671 106.231 70.255 97.6299 67.9457C97.6048 67.9387 97.584 67.9452 97.5675 67.9652C94.5613 71.411 90.8449 74.2956 86.7083 76.2777C80.7922 79.1117 74.5453 80.162 67.9675 79.4286C59.7685 78.5129 52.2628 74.5697 46.681 68.46C46.5431 68.3085 46.4108 68.1535 46.2842 67.995C46.2718 67.9796 46.2552 67.9681 46.2365 67.9619C46.2178 67.9557 46.1978 67.955 46.1789 67.96C43.9111 68.547 41.7197 69.2904 39.6046 70.19C36.4709 71.5226 33.4569 73.3683 31.1232 75.8114C28.0343 79.0463 26.485 83.0086 26.4754 87.6983C26.4689 90.7076 27.0166 93.7768 27.8361 96.6719C29.1664 101.362 31.0725 105.523 33.5545 109.154C36.0859 112.857 39.2546 115.906 43.3756 117.489Z" stroke="#ADADAD" stroke-width="2"/>
<path d="M76.7571 34.4034C77.0654 35.9581 76.8364 37.392 76.0728 38.8051C75.6505 39.5879 75.1701 40.2897 74.6315 40.9105C72.5177 43.3433 69.9382 45.411 68.3343 48.2944C67.1662 50.3959 67.0699 52.7351 67.4836 55.086C67.4957 55.157 67.5378 55.1925 67.6098 55.1925H72.2472C72.2521 55.1925 72.257 55.1915 72.2616 55.1895C72.2661 55.1875 72.2702 55.1845 72.2735 55.1809C72.2768 55.1772 72.2793 55.1728 72.2808 55.1681C72.2823 55.1634 72.2828 55.1584 72.2823 55.1535C72.0885 53.4455 72.2862 51.7025 73.0888 50.1153C74.3844 47.5554 76.3837 45.6928 78.4143 43.7524C79.4255 42.7852 80.3655 41.6535 81.2345 40.3572C82.4963 38.4722 83.0096 36.4512 82.7746 34.2943C82.6896 33.5124 82.537 32.7305 82.3167 31.9486C81.7444 29.9173 80.5858 28.3366 78.841 27.2066C77.4127 26.2818 75.8556 25.6857 74.1698 25.4181C73.378 25.2917 72.5221 25.2198 71.6019 25.2025C67.8383 25.1289 64.3187 25.9307 61.0432 27.6079C61.0042 27.6287 60.9921 27.6599 61.0068 27.7015L62.5444 31.9525C62.5678 32.0166 62.6099 32.0322 62.6706 31.9993C64.8473 30.8182 67.1393 30.1502 69.5467 29.9952C72.1054 29.8302 74.5236 30.3251 75.9844 32.4941C76.3573 33.0483 76.6149 33.6847 76.7571 34.4034Z" stroke="#ADADAD" stroke-width="2"/>
<path d="M74.1802 64.0998C73.6546 61.7411 71.6618 60.6527 69.3177 61.028C68.1626 61.2125 67.2169 61.9268 66.6484 62.9412C65.3125 65.3298 66.5496 68.6639 69.4218 69.0613C71.027 69.2834 72.6036 68.8639 73.5441 67.4598C74.237 66.4242 74.449 65.3042 74.1802 64.0998Z" stroke="#ADADAD" stroke-width="2"/>
<path d="M44.8299 66.2103C40.6413 60.6063 38.3644 54.3685 37.9994 47.4968C37.5519 39.0583 40.2914 30.7783 45.6807 24.2452C54.5639 13.474 69.107 9.21907 82.3909 13.5208C90.7083 16.2146 97.7015 22.0723 101.829 29.7457C108.107 41.4157 106.965 55.6794 98.9568 66.2272C98.9533 66.2316 98.951 66.2367 98.9501 66.2421C98.9491 66.2475 98.9494 66.2531 98.9511 66.2583C98.9528 66.2636 98.9557 66.2683 98.9596 66.2722C98.9636 66.2761 98.9684 66.2789 98.9737 66.2805C104.61 67.8495 110.464 70.4043 114.439 74.7995C117.649 78.3505 119.269 82.5977 119.301 87.541C119.315 89.5958 119.105 91.6955 118.671 93.8403C117.682 98.7213 115.996 103.273 113.613 107.496C110.737 112.594 106.738 117.098 101.344 119.253C97.8303 120.656 94.0306 121.153 90.2738 121.265C88.3252 121.322 86.4572 121.32 84.6699 121.259C81.4708 121.149 78.4113 121.043 75.4914 120.94C69.9005 120.746 62.3519 121.198 58.7317 121.275C53.427 121.391 48.0078 121.298 42.9659 119.442C40.3798 118.489 38.0397 117.018 35.9454 115.028C34.7183 113.863 33.5731 112.55 32.5099 111.089C29.3502 106.748 27.0829 101.611 25.7106 96.351C25.0602 93.8607 24.6699 91.4405 24.5398 89.0905C24.2576 84.0342 25.5883 79.261 28.882 75.3619C31.135 72.6941 34.1268 70.6095 37.3086 69.0808C39.6171 67.9716 42.1147 67.0429 44.8013 66.2948C44.8525 66.2809 44.862 66.2528 44.8299 66.2103ZM104.164 45.7551C104.164 37.2126 100.765 29.0199 94.7155 22.9794C88.6658 16.939 80.4606 13.5455 71.9051 13.5455C63.3495 13.5455 55.1443 16.939 49.0946 22.9794C43.0449 29.0199 39.6462 37.2126 39.6462 45.7551C39.6462 54.2976 43.0449 62.4903 49.0946 68.5308C55.1443 74.5712 63.3495 77.9647 71.9051 77.9647C76.1413 77.9647 80.3362 77.1316 84.25 75.5129C88.1638 73.8942 91.72 71.5217 94.7155 68.5308C97.711 65.5398 100.087 61.9891 101.708 58.0812C103.33 54.1733 104.164 49.9849 104.164 45.7551ZM43.3756 117.489C45.5766 118.334 47.8864 118.868 50.305 119.093C52.1678 119.266 53.9681 119.348 55.706 119.339C58.2079 119.327 61.7661 119.227 66.3805 119.039C69.2735 118.921 71.9488 118.891 74.4065 118.948C78.7629 119.051 83.2989 119.306 87.7086 119.335C92.4566 119.365 97.3828 118.986 101.685 116.953C106.105 114.866 109.474 110.822 111.83 106.649C114.427 102.047 116.141 97.2013 116.972 92.1116C117.376 89.6321 117.488 87.0708 117.08 84.568C115.478 74.767 106.231 70.2549 97.6299 67.9456C97.6048 67.9387 97.584 67.9452 97.5675 67.9651C94.5613 71.4109 90.8449 74.2956 86.7083 76.2776C80.7922 79.1116 74.5453 80.1619 67.9675 79.4285C59.7685 78.5128 52.2628 74.5696 46.681 68.4599C46.5431 68.3084 46.4108 68.1534 46.2842 67.9949C46.2718 67.9795 46.2552 67.968 46.2365 67.9618C46.2178 67.9556 46.1978 67.9549 46.1789 67.9599C43.9111 68.5469 41.7197 69.2903 39.6046 70.19C36.4709 71.5226 33.4569 73.3682 31.1233 75.8113C28.0343 79.0462 26.485 83.0085 26.4754 87.6982C26.4689 90.7076 27.0166 93.7767 27.8361 96.6718C29.1664 101.362 31.0725 105.523 33.5545 109.154C36.0859 112.856 39.2546 115.906 43.3756 117.489Z" fill="#184773"/>
<path d="M104.164 45.7552C104.164 49.985 103.33 54.1734 101.708 58.0813C100.087 61.9891 97.711 65.5399 94.7155 68.5308C91.72 71.5218 88.1638 73.8943 84.25 75.513C80.3362 77.1317 76.1413 77.9648 71.905 77.9648C63.3495 77.9648 55.1443 74.5713 49.0946 68.5308C43.0449 62.4903 39.6462 54.2977 39.6462 45.7552C39.6462 37.2126 43.0449 29.02 49.0946 22.9795C55.1443 16.939 63.3495 13.5455 71.905 13.5455C80.4606 13.5455 88.6658 16.939 94.7155 22.9795C100.765 29.02 104.164 37.2126 104.164 45.7552ZM76.7571 34.4034C77.0654 35.9581 76.8364 37.392 76.0728 38.8051C75.6505 39.5879 75.1701 40.2897 74.6315 40.9105C72.5177 43.3432 69.9382 45.411 68.3343 48.2944C67.1662 50.3959 67.0699 52.7351 67.4836 55.0859C67.4957 55.157 67.5378 55.1925 67.6098 55.1925H72.2472C72.2521 55.1925 72.257 55.1915 72.2616 55.1895C72.2661 55.1875 72.2702 55.1845 72.2735 55.1808C72.2768 55.1772 72.2793 55.1728 72.2808 55.1681C72.2823 55.1634 72.2828 55.1584 72.2823 55.1535C72.0885 53.4455 72.2862 51.7025 73.0888 50.1153C74.3844 47.5553 76.3837 45.6928 78.4143 43.7524C79.4255 42.7852 80.3655 41.6535 81.2345 40.3572C82.4963 38.4722 83.0097 36.4512 82.7746 34.2943C82.6897 33.5124 82.537 32.7305 82.3167 31.9486C81.7444 29.9173 80.5858 28.3366 78.841 27.2066C77.4127 26.2818 75.8556 25.6857 74.1698 25.4181C73.378 25.2917 72.5221 25.2198 71.602 25.2025C67.8383 25.1289 64.3187 25.9307 61.0433 27.6079C61.0042 27.6287 60.9921 27.6599 61.0068 27.7015L62.5444 31.9525C62.5678 32.0166 62.6099 32.0322 62.6706 31.9993C64.8473 30.8182 67.1393 30.1502 69.5467 29.9952C72.1054 29.8302 74.5236 30.3251 75.9844 32.4941C76.3573 33.0483 76.6149 33.6847 76.7571 34.4034ZM74.1802 64.0998C73.6546 61.7411 71.6618 60.6527 69.3177 61.0281C68.1626 61.2125 67.2169 61.9269 66.6485 62.9413C65.3125 65.3298 66.5496 68.6639 69.4218 69.0613C71.027 69.2834 72.6036 68.8639 73.5441 67.4599C74.237 66.4243 74.449 65.3043 74.1802 64.0998Z" fill="#8DB8F9"/>
<path d="M75.9844 32.4941C74.5236 30.3251 72.1054 29.8302 69.5467 29.9952C67.1393 30.1502 64.8473 30.8182 62.6706 31.9993C62.6099 32.0322 62.5678 32.0166 62.5444 31.9525L61.0068 27.7015C60.9921 27.6599 61.0042 27.6287 61.0432 27.6079C64.3187 25.9307 67.8383 25.1289 71.6019 25.2025C72.5221 25.2198 73.378 25.2917 74.1698 25.4181C75.8556 25.6857 77.4127 26.2818 78.841 27.2066C80.5858 28.3366 81.7444 29.9173 82.3167 31.9486C82.537 32.7305 82.6896 33.5124 82.7746 34.2943C83.0096 36.4512 82.4963 38.4722 81.2345 40.3572C80.3655 41.6535 79.4255 42.7852 78.4143 43.7524C76.3837 45.6928 74.3844 47.5553 73.0888 50.1153C72.2862 51.7025 72.0885 53.4455 72.2823 55.1535C72.2828 55.1584 72.2823 55.1634 72.2808 55.1681C72.2793 55.1728 72.2768 55.1772 72.2735 55.1808C72.2702 55.1845 72.2661 55.1875 72.2616 55.1895C72.257 55.1915 72.2521 55.1925 72.2472 55.1925H67.6098C67.5378 55.1925 67.4957 55.157 67.4836 55.086C67.0699 52.7351 67.1662 50.3959 68.3343 48.2944C69.9382 45.411 72.5177 43.3433 74.6315 40.9105C75.1701 40.2897 75.6505 39.5879 76.0728 38.8051C76.8364 37.392 77.0654 35.9581 76.7571 34.4034C76.6148 33.6847 76.3573 33.0483 75.9844 32.4941Z" fill="#184773"/>
<path d="M69.3177 61.028C71.6618 60.6527 73.6546 61.7411 74.1802 64.0998C74.449 65.3042 74.237 66.4242 73.5441 67.4598C72.6036 68.8639 71.027 69.2834 69.4218 69.0613C66.5496 68.6639 65.3125 65.3298 66.6484 62.9412C67.2169 61.9268 68.1626 61.2125 69.3177 61.028Z" fill="#184773"/>
<path d="M43.3756 117.489C39.2546 115.906 36.0859 112.856 33.5545 109.153C31.0725 105.523 29.1664 101.362 27.8361 96.6717C27.0166 93.7766 26.4689 90.7075 26.4754 87.6981C26.485 83.0085 28.0343 79.0462 31.1232 75.8113C33.4569 73.3682 36.4709 71.5225 39.6046 70.1899C41.7197 69.2903 43.9111 68.5469 46.1789 67.9598C46.1978 67.9549 46.2178 67.9555 46.2365 67.9618C46.2552 67.968 46.2718 67.9795 46.2842 67.9949C46.4108 68.1534 46.5431 68.3084 46.681 68.4599C52.2628 74.5696 59.7685 78.5128 67.9675 79.4285C74.5453 80.1619 80.7922 79.1116 86.7083 76.2775C90.8449 74.2955 94.5613 71.4108 97.5675 67.965C97.584 67.9451 97.6048 67.9386 97.6299 67.9456C106.231 70.2549 115.478 74.767 117.08 84.568C117.488 87.0708 117.376 89.6321 116.972 92.1115C116.141 97.2012 114.427 102.047 111.83 106.649C109.474 110.822 106.105 114.866 101.685 116.953C97.3828 118.986 92.4566 119.365 87.7086 119.335C83.2989 119.306 78.7629 119.051 74.4065 118.948C71.9488 118.891 69.2735 118.921 66.3805 119.039C61.7661 119.227 58.2079 119.327 55.706 119.339C53.9681 119.348 52.1678 119.266 50.305 119.093C47.8864 118.868 45.5766 118.334 43.3756 117.489Z" fill="#8DB8F9"/>
</svg>
